<?xml version="1.0" encoding="UTF-8"?>
<svg xmlns="http://www.w3.org/2000/svg" xmlns:xlink="http://www.w3.org/1999/xlink" width="33px" height="33px" viewBox="0 0 33 33" version="1.1">
<g id="surface1">
<path style=" stroke:none;fill-rule:nonzero;fill:rgb(0%,0%,0%);fill-opacity:1;" d="M 32.835938 21.515625 C 32.835938 16.175781 32.835938 10.839844 32.835938 5.5 C 32.835938 1.410156 30.167969 0.238281 26.574219 0.238281 C 19.398438 0.238281 12.21875 0.238281 5.042969 0.238281 C 5.023438 0.238281 5.003906 0.238281 4.984375 0.242188 C 4.953125 0.246094 4.914062 0.25 4.894531 0.25 C 4.886719 0.25 4.875 0.25 4.863281 0.253906 C 0.207031 0.792969 0 4.296875 0 8.082031 C 0 13.699219 0 19.320312 0 24.9375 C 0 28.40625 0.121094 32.390625 4.738281 32.390625 C 9.640625 32.390625 14.539062 32.390625 19.4375 32.390625 C 22.230469 32.390625 27.699219 33.4375 30.292969 31.785156 C 33.792969 29.550781 32.835938 25.132812 32.835938 21.515625 Z M 31.414062 6.542969 C 31.398438 6.910156 31.386719 7.257812 31.386719 7.5625 C 31.386719 7.652344 31.386719 7.742188 31.386719 7.828125 C 31.386719 7.976562 31.144531 8.328125 30.847656 8.617188 C 30.339844 9.105469 29.832031 9.597656 29.328125 10.085938 C 29.03125 10.375 28.839844 10.621094 28.90625 10.636719 C 28.96875 10.648438 29.265625 10.421875 29.5625 10.132812 C 29.960938 9.742188 30.394531 9.324219 30.851562 8.878906 C 31.148438 8.589844 31.386719 8.644531 31.386719 9.007812 C 31.386719 9.367188 31.152344 9.882812 30.863281 10.164062 C 30.574219 10.445312 30.441406 10.671875 30.566406 10.671875 C 30.6875 10.671875 30.925781 10.554688 31.089844 10.40625 C 31.253906 10.261719 31.386719 10.480469 31.386719 10.894531 C 31.386719 12.394531 31.386719 13.894531 31.386719 15.394531 C 31.386719 16.457031 31.410156 17.53125 31.441406 18.613281 C 31.453125 19.027344 31.394531 19.621094 31.289062 19.933594 C 31.1875 20.246094 31.171875 20.402344 31.28125 20.292969 C 31.390625 20.179688 31.488281 20.421875 31.5 20.835938 C 31.507812 21.242188 31.515625 21.648438 31.523438 22.050781 C 31.53125 22.464844 31.300781 23.042969 31.007812 23.339844 C 30.621094 23.738281 30.230469 24.136719 29.839844 24.539062 C 29.550781 24.835938 29.308594 24.816406 29.296875 24.492188 C 29.292969 24.292969 29.289062 24.097656 29.289062 23.910156 C 29.289062 21.628906 30.667969 14.410156 27.761719 13.558594 C 27.746094 13.554688 27.722656 13.550781 27.699219 13.546875 C 27.664062 13.542969 27.601562 13.535156 27.558594 13.527344 C 27.515625 13.523438 27.472656 13.507812 27.464844 13.496094 C 27.457031 13.480469 27.4375 13.480469 27.425781 13.492188 C 27.414062 13.503906 27.332031 13.515625 27.246094 13.527344 C 27.199219 13.535156 27.148438 13.546875 27.09375 13.5625 C 24.871094 14.183594 25.542969 15.535156 25.433594 17.65625 C 25.378906 18.703125 25.125 19.660156 24.726562 20.523438 C 24.554688 20.898438 24.140625 21.421875 23.847656 21.714844 C 23.714844 21.847656 23.582031 21.980469 23.449219 22.113281 C 23.15625 22.40625 23.023438 22.628906 23.148438 22.605469 C 23.269531 22.585938 23.140625 22.8125 22.835938 23.089844 C 21.421875 24.371094 19.570312 25.175781 17.621094 25.414062 C 17.210938 25.464844 16.949219 25.402344 17.042969 25.3125 C 17.132812 25.21875 17.082031 25.074219 16.925781 24.984375 C 16.773438 24.894531 16.492188 24.964844 16.292969 25.148438 C 16.09375 25.328125 15.597656 25.464844 15.1875 25.414062 C 14.523438 25.335938 13.867188 25.1875 13.230469 24.960938 C 13.136719 24.929688 13.050781 24.894531 12.960938 24.855469 C 12.8125 24.792969 12.925781 24.507812 13.210938 24.214844 C 13.496094 23.929688 13.480469 23.921875 13.171875 24.199219 L 13.171875 24.203125 C 12.867188 24.484375 12.398438 24.613281 12.132812 24.472656 C 11.867188 24.332031 11.90625 23.972656 12.210938 23.695312 C 12.554688 23.378906 12.902344 23.0625 13.246094 22.746094 C 13.550781 22.464844 14.113281 22.359375 14.511719 22.46875 C 15.054688 22.613281 15.605469 22.707031 16.160156 22.734375 C 18 22.832031 19.730469 22.148438 21.054688 20.992188 C 21.367188 20.71875 21.378906 20.730469 21.074219 21.011719 C 20.882812 21.191406 20.675781 21.359375 20.460938 21.515625 C 20.125 21.753906 19.757812 21.976562 19.671875 22.054688 C 19.585938 22.132812 19.621094 22.238281 19.746094 22.285156 C 19.871094 22.328125 20.210938 22.125 20.5 21.832031 C 21.824219 20.480469 23.148438 19.128906 24.472656 17.773438 C 24.761719 17.476562 24.746094 17.460938 24.4375 17.738281 C 23.859375 18.261719 23.28125 18.78125 22.714844 19.296875 C 22.40625 19.574219 22.359375 19.53125 22.570312 19.171875 C 22.996094 18.453125 23.296875 17.652344 23.4375 16.8125 C 23.464844 16.664062 23.480469 16.515625 23.492188 16.371094 C 23.511719 16.125 23.753906 15.695312 24.054688 15.40625 C 24.847656 14.652344 25.613281 13.921875 26.351562 13.21875 C 26.648438 12.929688 26.867188 12.667969 26.832031 12.632812 C 26.796875 12.597656 26.527344 12.800781 26.230469 13.089844 C 25.496094 13.808594 24.765625 14.519531 24.042969 15.230469 C 23.746094 15.519531 23.746094 15.523438 24.039062 15.230469 C 24.769531 14.511719 25.53125 13.761719 26.222656 13.082031 C 26.519531 12.789062 26.75 12.546875 26.742188 12.539062 C 26.734375 12.535156 26.492188 12.761719 26.195312 13.050781 C 25.472656 13.757812 24.753906 14.460938 24.039062 15.15625 C 23.742188 15.445312 23.496094 15.34375 23.425781 14.9375 C 23.394531 14.746094 23.347656 14.5625 23.296875 14.382812 C 23.179688 13.984375 23.28125 13.449219 23.582031 13.167969 C 24.015625 12.765625 24.445312 12.367188 24.878906 11.964844 C 25.179688 11.679688 25.234375 11.332031 24.984375 11.199219 C 24.734375 11.070312 24.277344 11.210938 23.972656 11.492188 C 23.679688 11.765625 23.390625 12.035156 23.097656 12.304688 C 22.796875 12.585938 22.417969 12.625 22.234375 12.40625 C 22.050781 12.191406 22.136719 11.800781 22.441406 11.519531 C 22.546875 11.425781 22.65625 11.324219 22.769531 11.222656 C 23.074219 10.941406 23.652344 10.765625 24.066406 10.785156 C 25.121094 10.832031 26.230469 10.699219 26.847656 10.699219 C 28.472656 10.699219 29.050781 9.765625 29.238281 8.585938 C 29.304688 8.175781 29.324219 7.824219 29.34375 7.808594 C 29.351562 7.796875 29.363281 7.789062 29.375 7.777344 L 30.542969 6.695312 C 30.691406 6.542969 30.839844 6.394531 30.988281 6.246094 C 31.230469 5.996094 31.425781 6.128906 31.414062 6.542969 Z M 30.855469 8.796875 C 30.421875 9.230469 30.003906 9.636719 29.589844 10.027344 C 29.292969 10.3125 29.289062 10.3125 29.585938 10.023438 C 30.054688 9.570312 30.472656 9.160156 30.851562 8.792969 C 31.148438 8.503906 31.152344 8.507812 30.855469 8.796875 Z M 27.574219 28.015625 C 26.625 28.015625 25.679688 28.015625 24.734375 28.015625 C 20.828125 28.015625 16.921875 28.015625 13.015625 28.015625 C 11.917969 28.015625 4.9375 28.9375 4.9375 26.898438 C 4.9375 23.613281 4.9375 20.324219 4.9375 17.035156 C 4.9375 16.5 4.9375 15.964844 4.9375 15.429688 C 4.9375 13.953125 6.011719 17.644531 6.015625 17.75 C 6.148438 20.296875 7.722656 22.535156 9.566406 24.15625 C 12.582031 26.8125 16.941406 26.835938 20.523438 25.566406 C 22.4375 24.886719 23.992188 23.445312 25.207031 21.871094 C 25.792969 21.113281 26.152344 20.183594 26.488281 19.300781 C 26.617188 18.957031 26.828125 16.695312 27.023438 15.3125 C 27.082031 14.902344 27.394531 14.808594 27.574219 15.179688 C 28.679688 17.433594 27.835938 22.84375 27.835938 24.300781 C 27.839844 24.496094 28.03125 28.015625 27.574219 28.015625 Z M 12.386719 21.5625 C 12.632812 21.714844 12.597656 22.054688 12.292969 22.335938 C 12.007812 22.601562 11.71875 22.867188 11.429688 23.136719 C 11.125 23.417969 10.703125 23.503906 10.492188 23.316406 C 10.285156 23.128906 10.375 22.738281 10.675781 22.457031 C 10.917969 22.230469 11.160156 22.003906 11.402344 21.78125 C 11.703125 21.496094 12.140625 21.40625 12.386719 21.5625 Z M 15.414062 10.601562 C 15.820312 10.535156 16.496094 10.535156 16.902344 10.601562 C 23.160156 11.660156 23.988281 21.59375 16.738281 21.972656 C 9.957031 22.324219 8.820312 11.691406 15.414062 10.601562 Z M 27.792969 9.324219 C 27.679688 10.28125 26.160156 9.933594 25.527344 9.933594 C 24.726562 9.933594 23.777344 10.125 23.164062 9.511719 C 22.710938 9.058594 22.902344 7.835938 22.902344 7.269531 C 22.902344 6.910156 22.753906 5.714844 22.976562 5.007812 C 23.101562 4.613281 23.792969 4.46875 24.203125 4.4375 C 25.378906 4.351562 26.882812 4.230469 27.5625 4.914062 C 28.015625 5.367188 27.828125 6.589844 27.828125 7.152344 C 27.828125 7.875 27.875 8.609375 27.792969 9.324219 Z M 1.914062 3.433594 C 2.335938 2.371094 2.957031 1.566406 3.855469 1.195312 C 4.238281 1.039062 4.617188 1.003906 4.664062 1.003906 C 4.714844 1.003906 4.519531 1.242188 4.226562 1.539062 C 3.5625 2.214844 2.882812 2.910156 2.199219 3.609375 C 1.90625 3.902344 1.761719 3.820312 1.914062 3.433594 Z M 1.210938 11.636719 C 1.203125 11.53125 1.199219 11.421875 1.191406 11.316406 C 1.167969 10.902344 1.390625 10.332031 1.6875 10.046875 C 3.105469 8.683594 4.464844 7.378906 5.777344 6.121094 C 6.078125 5.835938 6.320312 5.589844 6.320312 5.574219 C 6.320312 5.554688 6.078125 5.773438 5.777344 6.0625 C 4.488281 7.300781 3.121094 8.613281 1.6875 9.988281 C 1.386719 10.273438 1.136719 10.363281 1.125 10.183594 C 1.117188 10.074219 1.113281 9.964844 1.105469 9.855469 C 1.09375 8.917969 1.113281 7.964844 1.1875 7.050781 C 1.21875 6.636719 1.492188 6.0625 1.78125 5.765625 C 2.933594 4.585938 4.066406 3.429688 5.128906 2.34375 C 5.417969 2.046875 5.421875 2.046875 5.132812 2.34375 C 4.875 2.613281 4.617188 2.882812 4.351562 3.15625 C 4.0625 3.457031 4.066406 3.457031 4.355469 3.160156 C 4.886719 2.617188 5.414062 2.078125 5.945312 1.539062 C 6.234375 1.246094 6.804688 1.003906 7.21875 1.003906 C 7.675781 1.003906 8.128906 1.003906 8.585938 1.003906 C 9 1.003906 9.296875 1.042969 9.25 1.089844 C 9.203125 1.136719 9.265625 1.140625 9.386719 1.105469 C 9.507812 1.070312 9.617188 1.039062 9.632812 1.027344 C 9.644531 1.015625 9.992188 1.003906 10.40625 1.003906 C 12.4375 1.003906 14.46875 1.003906 16.5 1.003906 C 19.1875 1.003906 21.871094 1.003906 24.558594 1.003906 C 26.507812 1.003906 28.375 0.75 29.980469 1.921875 C 30.3125 2.164062 30.792969 2.648438 30.976562 3.019531 C 31.109375 3.277344 31.199219 3.566406 31.269531 3.871094 C 31.355469 4.273438 31.132812 4.839844 30.832031 5.125 C 30.503906 5.425781 30.179688 5.730469 29.851562 6.03125 C 29.546875 6.316406 29.292969 6.292969 29.28125 5.984375 C 29.277344 5.789062 29.273438 5.601562 29.273438 5.421875 C 29.273438 5.386719 29.269531 5.355469 29.265625 5.324219 C 29.257812 5.273438 29.4375 5.054688 29.667969 4.84375 C 29.898438 4.632812 29.90625 4.457031 29.691406 4.457031 C 29.472656 4.457031 29.25 4.5 29.195312 4.550781 C 29.136719 4.601562 28.929688 4.328125 28.578125 4.105469 C 27.390625 3.339844 24.980469 3.722656 23.875 3.722656 C 23.859375 3.722656 23.839844 3.722656 23.820312 3.726562 C 23.785156 3.730469 23.746094 3.734375 23.726562 3.734375 C 23.71875 3.734375 23.707031 3.734375 23.695312 3.734375 C 20.824219 4.070312 21.449219 6.941406 21.449219 9.070312 C 21.449219 9.609375 21.664062 9.984375 22.011719 10.242188 C 22.34375 10.488281 22.519531 10.722656 22.320312 10.910156 C 22.203125 11.023438 22.082031 11.136719 21.957031 11.253906 C 21.878906 11.328125 21.808594 11.398438 21.742188 11.464844 C 21.621094 11.582031 21.347656 11.523438 21.117188 11.34375 C 20.882812 11.167969 20.808594 10.929688 20.957031 10.792969 C 21.105469 10.660156 21.179688 10.554688 21.121094 10.5625 C 21.066406 10.570312 20.929688 10.671875 20.816406 10.785156 C 20.707031 10.898438 20.332031 10.808594 19.960938 10.621094 C 19.277344 10.277344 18.535156 10.027344 17.78125 9.886719 C 17.375 9.8125 16.972656 9.761719 16.886719 9.753906 C 16.804688 9.75 16.699219 9.753906 16.65625 9.757812 C 16.613281 9.761719 16.242188 9.789062 15.832031 9.847656 C 12.652344 10.304688 10.027344 12.304688 9.460938 15.679688 C 9.269531 16.796875 9.425781 17.820312 9.820312 18.71875 C 9.984375 19.101562 10.085938 19.464844 9.988281 19.5625 C 9.886719 19.664062 9.808594 19.976562 9.808594 20.261719 C 9.808594 20.550781 9.882812 20.707031 9.976562 20.609375 C 10.03125 20.550781 10.089844 20.492188 10.144531 20.4375 C 10.21875 20.359375 10.292969 20.285156 10.363281 20.210938 C 10.484375 20.085938 10.789062 20.25 11.082031 20.542969 C 11.148438 20.605469 11.214844 20.667969 11.28125 20.730469 C 11.585938 21.007812 11.621094 21.445312 11.332031 21.738281 C 11.109375 21.960938 10.878906 22.1875 10.644531 22.421875 C 10.351562 22.714844 9.878906 22.714844 9.621094 22.390625 C 8.019531 20.410156 7.320312 17.726562 7.511719 15.125 C 7.554688 14.578125 7.34375 14.121094 6.992188 13.828125 C 6.671875 13.5625 6.316406 13.464844 6.316406 13.402344 C 6.316406 13.335938 6.269531 13.332031 6.207031 13.394531 C 6.148438 13.457031 5.976562 13.496094 5.828125 13.511719 C 5.742188 13.519531 5.652344 13.535156 5.5625 13.5625 C 4.4375 13.878906 3.859375 14.589844 3.582031 15.484375 C 3.457031 15.878906 3.179688 16.453125 2.890625 16.746094 C 2.601562 17.039062 2.3125 17.328125 2.023438 17.621094 C 1.734375 17.914062 1.507812 18.023438 1.515625 17.863281 C 1.523438 17.730469 1.527344 17.632812 1.527344 17.574219 C 1.527344 17.480469 1.515625 17.226562 1.5 16.855469 C 1.480469 16.460938 1.695312 15.898438 1.984375 15.601562 C 3.261719 14.292969 4.53125 12.996094 5.792969 11.710938 C 6.082031 11.414062 6.316406 10.929688 6.316406 10.632812 C 6.316406 10.332031 6.074219 10.320312 5.777344 10.609375 C 4.671875 11.679688 3.363281 12.949219 1.929688 14.335938 C 1.632812 14.625 1.375 14.539062 1.351562 14.140625 C 1.328125 13.742188 1.550781 13.183594 1.847656 12.894531 C 3.121094 11.65625 4.433594 10.378906 5.78125 9.070312 C 6.078125 8.78125 6.316406 8.277344 6.316406 7.949219 C 6.316406 7.621094 6.078125 7.589844 5.785156 7.882812 C 4.445312 9.210938 3.109375 10.539062 1.78125 11.855469 C 1.492188 12.152344 1.234375 12.050781 1.210938 11.636719 Z M 2.871094 22.722656 C 2.570312 23.035156 2.269531 23.34375 1.96875 23.652344 C 1.683594 23.949219 1.449219 23.890625 1.449219 23.519531 C 1.449219 23.148438 1.679688 22.609375 1.96875 22.3125 C 2.304688 21.964844 2.636719 21.621094 2.964844 21.28125 C 3.253906 20.984375 3.480469 21.066406 3.453125 21.464844 C 3.421875 21.863281 3.160156 22.425781 2.871094 22.722656 Z M 3.285156 23.707031 C 3.269531 24.003906 3.023438 24.484375 2.734375 24.78125 C 2.453125 25.058594 2.175781 25.339844 1.898438 25.621094 C 1.605469 25.914062 1.382812 25.902344 1.402344 25.597656 C 1.421875 25.289062 1.671875 24.800781 1.964844 24.507812 C 2.328125 24.144531 2.691406 23.78125 3.058594 23.417969 C 3.101562 23.375 3.144531 23.335938 3.1875 23.292969 C 3.257812 23.222656 3.300781 23.40625 3.285156 23.707031 Z M 1.449219 20.207031 C 1.449219 19.757812 1.449219 19.3125 1.449219 18.863281 C 1.453125 18.78125 1.460938 18.703125 1.46875 18.625 C 1.476562 18.492188 1.730469 18.15625 2.035156 17.871094 C 2.296875 17.625 2.5625 17.375 2.824219 17.128906 C 3.125 16.84375 3.339844 16.949219 3.339844 17.363281 C 3.335938 17.664062 3.347656 17.96875 3.359375 18.273438 C 3.382812 18.6875 3.167969 19.257812 2.871094 19.550781 C 2.574219 19.84375 2.277344 20.136719 1.980469 20.429688 C 1.6875 20.722656 1.449219 20.621094 1.449219 20.207031 Z M 1.359375 27.621094 C 1.34375 27.417969 1.339844 27.207031 1.339844 26.996094 C 1.339844 26.582031 1.601562 26.007812 1.894531 25.714844 C 2.171875 25.441406 2.449219 25.167969 2.726562 24.890625 C 3.019531 24.597656 3.25 24.699219 3.257812 25.113281 C 3.261719 25.277344 3.265625 25.445312 3.277344 25.605469 C 3.300781 26.019531 3.117188 26.597656 2.835938 26.902344 C 2.550781 27.207031 2.265625 27.515625 1.976562 27.820312 C 1.695312 28.121094 1.386719 28.035156 1.359375 27.621094 Z M 2.667969 30.304688 C 2.386719 30.0625 2.140625 29.789062 1.941406 29.472656 C 1.714844 29.125 1.84375 28.578125 2.144531 28.292969 C 2.40625 28.046875 2.671875 27.796875 2.933594 27.550781 C 3.238281 27.265625 3.554688 27.367188 3.734375 27.742188 C 4.042969 28.375 4.535156 28.78125 5.300781 28.78125 C 5.316406 28.78125 5.328125 28.78125 5.339844 28.78125 C 5.359375 28.78125 5.128906 29.011719 4.828125 29.296875 C 4.492188 29.605469 4.15625 29.917969 3.820312 30.234375 C 3.519531 30.511719 2.980469 30.574219 2.667969 30.304688 Z M 31.523438 25.21875 C 31.511719 25.632812 31.257812 26.203125 30.960938 26.488281 C 30.375 27.054688 29.773438 27.632812 29.15625 28.230469 C 28.859375 28.519531 28.859375 28.75 29.15625 28.75 C 29.453125 28.75 29.933594 28.515625 30.226562 28.222656 C 30.457031 27.988281 30.6875 27.757812 30.921875 27.527344 C 31.214844 27.234375 31.433594 27.292969 31.40625 27.65625 C 31.375 28.015625 31.246094 28.410156 31.125 28.53125 C 31 28.652344 30.992188 28.75 31.105469 28.75 C 31.214844 28.75 31.300781 28.804688 31.292969 28.875 C 31.292969 28.914062 31.289062 28.957031 31.285156 28.996094 C 30.773438 33.378906 18.761719 31.621094 16.335938 31.621094 C 14.070312 31.621094 9.960938 32.222656 6.609375 31.777344 C 6.199219 31.726562 6.105469 31.421875 6.398438 31.125 C 6.417969 31.105469 6.4375 31.085938 6.457031 31.066406 C 6.75 30.769531 6.929688 30.445312 6.871094 30.335938 C 6.8125 30.222656 6.519531 30.359375 6.210938 30.636719 C 6.074219 30.765625 5.933594 30.890625 5.792969 31.019531 C 5.484375 31.296875 4.960938 31.457031 4.628906 31.347656 C 4.300781 31.242188 4.289062 30.90625 4.597656 30.628906 C 5.011719 30.257812 5.421875 29.890625 5.832031 29.519531 C 6.140625 29.242188 6.378906 28.964844 6.375 28.898438 C 6.367188 28.832031 6.699219 28.78125 7.113281 28.78125 C 13.707031 28.78125 20.300781 28.78125 26.894531 28.78125 C 28.699219 28.78125 29.1875 27.679688 29.292969 26.363281 C 29.328125 25.949219 29.378906 25.554688 29.449219 25.488281 L 29.578125 25.359375 C 30.054688 24.878906 30.53125 24.402344 31.007812 23.917969 C 31.300781 23.625 31.539062 23.722656 31.535156 24.136719 C 31.535156 24.5 31.53125 24.859375 31.523438 25.21875 Z M 31.523438 25.21875 "/>
<path style=" stroke:none;fill-rule:nonzero;fill:rgb(0%,0%,0%);fill-opacity:1;" d="M 5.980469 4.390625 C 5.378906 5.003906 4.757812 5.636719 4.117188 6.292969 C 4.0625 6.351562 4.007812 6.40625 3.949219 6.460938 C 3.859375 6.554688 4.023438 6.394531 4.324219 6.109375 C 4.851562 5.601562 5.375 5.101562 5.894531 4.601562 C 6.195312 4.316406 6.449219 4.03125 6.46875 3.96875 C 6.492188 3.90625 6.269531 4.097656 5.980469 4.390625 Z M 5.980469 4.390625 "/>
<path style=" stroke:none;fill-rule:nonzero;fill:rgb(0%,0%,0%);fill-opacity:1;" d="M 2.035156 14.183594 C 1.175781 15.066406 3.515625 12.78125 5.785156 10.570312 C 6.082031 10.28125 6.078125 10.28125 5.777344 10.566406 C 4.597656 11.699219 3.359375 12.902344 2.035156 14.183594 Z M 2.035156 14.183594 "/>
</g>
</svg>
